<svg id="Capa_1" enable-background="new 0 0 512 512" height="512" viewBox="0 0 512 512" width="512" xmlns="http://www.w3.org/2000/svg"><g><g><g fill="#df5ccb"><path d="m421.45 256v70.34c0 8.28-6.71 15-15 15-8.28 0-15-6.72-15-15v-55.34h-270.9v55.34c0 8.28-6.72 15-15 15-8.29 0-15-6.72-15-15v-70.34c0-8.28 6.71-15 15-15h135.45v-55.34c0-8.28 6.72-15 15-15s15 6.72 15 15v55.34h135.45c8.29 0 15 6.72 15 15z"/><path d="m330.9 386.34c0 8.28-6.71 15-15 15h-119.8c-8.29 0-15-6.72-15-15 0-8.29 6.71-15 15-15h119.8c8.29 0 15 6.71 15 15z"/></g><path d="m330.9 386.34c0 8.28-6.71 15-15 15h-59.9v-30h59.9c8.29 0 15 6.71 15 15z" fill="#c63eba"/><path d="m421.45 256v70.34c0 8.28-6.71 15-15 15-8.28 0-15-6.72-15-15v-55.34h-135.45v-100.34c8.28 0 15 6.72 15 15v55.34h135.45c8.29 0 15 6.72 15 15z" fill="#c63eba"/><path d="m141.746 482h-21.198v-35c0-8.284-6.716-15-15-15s-15 6.716-15 15v35h-21.197c-8.284 0-15 6.716-15 15s6.716 15 15 15h72.396c8.284 0 15-6.716 15-15s-6.717-15-15.001-15z" fill="#4793ff"/><path d="m442.649 482h-21.197v-35c0-8.284-6.716-15-15-15s-15 6.716-15 15v35h-21.198c-8.284 0-15 6.716-15 15s6.716 15 15 15h72.396c8.284 0 15-6.716 15-15s-6.716-15-15.001-15z" fill="#525cdd"/><g><path d="m211.1 326.34v120c0 8.28-6.72 15-15 15h-181.1c-8.28 0-15-6.72-15-15v-120c0-8.29 6.72-15 15-15h181.1c8.28 0 15 6.71 15 15z" fill="#5e54ac"/></g><g><g><circle cx="75.548" cy="386.335" fill="#f0f7ff" r="15"/></g><g><circle cx="135.548" cy="386.335" fill="#f0f7ff" r="15"/></g></g><g><path d="m512 326.34v120c0 8.28-6.72 15-15 15h-181.1c-8.28 0-15-6.72-15-15v-120c0-8.29 6.72-15 15-15h181.1c8.28 0 15 6.71 15 15z" fill="#453d81"/></g><g><g><circle cx="376.452" cy="386.335" fill="#dfe7f4" r="15"/></g><g><circle cx="436.452" cy="386.335" fill="#dfe7f4" r="15"/></g></g><path d="m307.2 185.66c0 8.29-6.72 15-15 15h-72.4c-8.28 0-15-6.71-15-15 0-8.28 6.72-15 15-15h21.2v-35c0-8.28 6.72-15 15-15s15 6.72 15 15v35h21.2c8.28 0 15 6.72 15 15z" fill="#4793ff"/><g><path d="m361.55 15v120c0 8.28-6.72 15-15 15h-181.1c-8.28 0-15-6.72-15-15v-120c0-8.28 6.72-15 15-15h181.1c8.28 0 15 6.72 15 15z" fill="#5e54ac"/></g><path d="m307.2 185.66c0 8.29-6.72 15-15 15h-36.2v-80c8.28 0 15 6.72 15 15v35h21.2c8.28 0 15 6.72 15 15z" fill="#525cdd"/><path d="m361.55 15v120c0 8.28-6.72 15-15 15h-90.55v-150h90.55c8.28 0 15 6.72 15 15z" fill="#453d81"/><g><g><circle cx="226" cy="75" fill="#f0f7ff" r="15"/></g><g><circle cx="286" cy="75" fill="#f0f7ff" r="15"/></g></g></g><path d="" style="fill:none;stroke:#000;stroke-width:30;stroke-linecap:round;stroke-linejoin:round;stroke-miterlimit:10"/></g></svg>