<svg id="Capa_1" enable-background="new 0 0 512.019 512.019" height="512" viewBox="0 0 512.019 512.019" width="512" xmlns="http://www.w3.org/2000/svg"><g id="XMLID_216_"><g id="XMLID_2144_"><circle id="XMLID_387_" cx="256.019" cy="256.01" fill="#a0c8ff" r="180"/></g><g id="XMLID_2210_"><path id="XMLID_386_" d="m436.019 256.01c0-3-.077-5.983-.222-8.948l-99.068-23.404c-12.649-2.96-24.755 6.641-24.755 19.632 0 7.771-4.466 14.851-11.48 18.197l-1.367.652c-19.791 9.443-32.393 29.419-32.393 51.348 0 22.523 13.287 42.926 33.886 52.034 12.436 5.499 20.458 17.816 20.458 31.414v26.948c67.254-26.083 114.941-91.405 114.941-167.873z" fill="#b7eabc"/></g><g id="XMLID_2182_"><path id="XMLID_369_" d="m76.019 256.01c0 17.296 2.446 34.02 6.999 49.852h50.209c21.424 0 42.276-6.922 59.447-19.734 18.32-13.669 21.96-39.664 8.097-57.839-5.459-7.158-8.417-15.911-8.417-24.913 0-15.436 8.23-29.7 21.593-37.427 13.805-7.982 22.307-22.719 22.307-38.666v-50.188c-90.11 9.843-160.235 86.184-160.235 178.915z" fill="#b7eabc"/></g><g id="XMLID_663_"><path id="XMLID_363_" d="m13.486 424.177 90.466-156.691c9.851-17.062 34.478-17.062 44.328 0l90.466 156.691c9.851 17.062-2.463 38.39-22.164 38.39h-180.932c-19.702 0-32.015-21.327-22.164-38.39z" fill="#ffd88e"/></g><g id="XMLID_1738_"><ellipse id="XMLID_306_" cx="398.127" cy="113.9" fill="#ff9171" rx="68.416" ry="68.416" transform="matrix(.973 -.23 .23 .973 -15.519 94.518)"/></g><g id="XMLID_388_"><path id="XMLID_391_" d="m382.671 455.183c-37.805 24.093-81.6 36.827-126.652 36.827-32.589 0-64.479-6.655-93.935-19.443h54.498c12.867 0 24.391-6.653 30.824-17.796 1.633-2.828 2.847-5.797 3.651-8.833 1.656.043 3.312.072 4.962.072 23.882 0 46.742-4.441 67.816-12.521.533-.153 1.044-.35 1.537-.585 70.559-27.759 120.634-96.57 120.647-176.862 0-.05 0-.1-.001-.15-.015-24.768-4.682-48.715-13.891-71.337 4.943-2.388 9.587-5.295 13.889-8.624l11.303 11.303c1.953 1.953 4.512 2.929 7.071 2.929s5.118-.977 7.071-2.929c3.905-3.905 3.905-10.237 0-14.142l-11.303-11.303c8.33-10.764 13.916-23.74 15.726-37.889h26.134c5.523 0 10-4.477 10-10s-4.478-10-10-10h-26.134c-1.81-14.148-7.397-27.125-15.726-37.889l35.563-35.563c3.905-3.905 3.905-10.237 0-14.142-3.906-3.905-10.236-3.905-14.143 0l-35.562 35.563c-10.764-8.329-23.74-13.916-37.889-15.726v-26.134c0-5.523-4.478-10-10-10-5.523 0-10 4.477-10 10v26.135c-14.148 1.81-27.124 7.397-37.888 15.726l-13.456-13.457c-3.905-3.905-10.235-3.905-14.143 0-3.905 3.905-3.905 10.237 0 14.142l13.457 13.457c-3.329 4.302-6.236 8.946-8.625 13.89-22.657-9.223-46.644-13.892-71.453-13.892-104.767 0-190 85.234-190 190 0 15.919 1.994 31.701 5.883 46.988l-30.104 52.141c-14.287-30.894-21.779-64.817-21.779-99.129 0-130.131 105.869-236 236-236 12.291 0 24.631.953 36.677 2.831 5.457.854 10.57-2.882 11.422-8.339.851-5.457-2.883-10.571-8.34-11.422-13.061-2.038-26.439-3.071-39.759-3.071-68.38 0-132.667 26.628-181.019 74.981-48.353 48.353-74.981 112.64-74.981 181.02 0 41.855 10.284 83.186 29.778 119.916l-24.972 43.251c-6.434 11.143-6.434 24.45 0 35.593 6.434 11.144 17.957 17.796 30.824 17.796h83.802c40.843 25.808 87.992 39.443 136.567 39.443 48.866 0 96.379-13.818 137.4-39.961 4.658-2.968 6.027-9.15 3.06-13.807-2.968-4.657-9.151-6.027-13.807-3.058zm-51.594-46.67v-11.577c0-17.545-10.368-33.466-26.414-40.56-16.967-7.502-27.93-24.336-27.93-42.888 0-17.972 10.48-34.585 26.701-42.323 11.262-5.374 18.539-16.909 18.539-29.388 0-2.457 1.134-4.704 3.11-6.164 1.978-1.46 4.459-1.882 6.805-1.161l93.962 28.893c-2.718 63.694-40.645 118.419-94.773 145.168zm94.399-166.207-29.38-9.034 3.964-41.004c4.442-.108 8.793-.578 13.024-1.399 6.836 16.43 10.989 33.656 12.392 51.437zm-85.765-128.406c0-32.211 26.205-58.416 58.416-58.416s58.417 26.206 58.417 58.416c0 32.211-26.206 58.416-58.417 58.416s-58.416-26.205-58.416-58.416zm-18.552-14.956c-.317 1.634-.575 3.288-.788 4.956h-35.352c-5.522 0-10 4.477-10 10s4.478 10 10 10h35.352c1.81 14.148 7.396 27.124 15.725 37.888l-12.38 12.38c-3.905 3.905-3.905 10.237 0 14.143 1.953 1.953 4.512 2.929 7.071 2.929 2.56 0 5.118-.976 7.071-2.929l12.38-12.38c8.711 6.74 18.869 11.683 29.927 14.286l-3.582 37.055-38.815-11.936c-8.478-2.607-17.432-1.08-24.567 4.19s-11.227 13.38-11.227 22.251c0 4.814-2.808 9.264-7.151 11.337-23.139 11.039-38.089 34.737-38.089 60.374 0 26.463 15.639 50.478 39.842 61.18 8.81 3.895 14.502 12.636 14.502 22.268v19.918c-17.276 5.93-35.797 9.156-55.059 9.156-1.859 0-3.726-.037-5.591-.097-.765-2.305-1.767-4.562-3.022-6.735l-66.083-114.458c6.083-2.977 11.883-6.513 17.331-10.577 11.018-8.22 18.135-20.245 20.04-33.858 1.906-13.613-1.636-27.13-9.972-38.06-4.106-5.383-6.368-12.077-6.368-18.848 0-11.826 6.36-22.85 16.598-28.77 16.841-9.737 27.303-27.87 27.303-47.323v-40.987c3.232-.184 6.486-.287 9.764-.287 22.649 0 44.52 4.355 65.14 12.934zm-235.14 157.066c0-83.587 60.64-153.274 140.236-167.388v38.662c0 12.336-6.634 23.834-17.313 30.008-16.399 9.482-26.587 27.141-26.587 46.084 0 11.129 3.717 22.13 10.466 30.978 5.072 6.65 7.227 14.875 6.067 23.158-1.159 8.283-5.49 15.6-12.194 20.602-4.819 3.596-9.982 6.675-15.405 9.226l-14.349-24.853c-6.434-11.144-17.957-17.796-30.824-17.796s-24.391 6.653-30.824 17.796l-8.036 13.918c-.807-6.747-1.237-13.555-1.237-20.395zm-63.873 188.761c-2.818-4.882-2.818-10.711 0-15.593l90.466-156.691c2.818-4.882 7.867-7.796 13.504-7.796s10.685 2.914 13.504 7.796l90.466 156.691c2.818 4.882 2.818 10.711 0 15.593-2.819 4.882-7.867 7.796-13.504 7.796h-180.932c-5.637 0-10.685-2.915-13.504-7.796z"/><path id="XMLID_397_" d="m498.579 213.582c-5.475.724-9.327 5.749-8.604 11.224 1.356 10.267 2.044 20.766 2.044 31.205 0 51.048-16.031 99.632-46.36 140.5-3.291 4.435-2.364 10.698 2.07 13.99 1.792 1.329 3.881 1.97 5.952 1.97 3.058 0 6.076-1.397 8.038-4.041 32.906-44.34 50.3-97.046 50.3-152.419 0-11.312-.745-22.692-2.216-33.824-.724-5.477-5.75-9.331-11.224-8.605z"/><path id="XMLID_398_" d="m123.686 384.567c5.522 0 10-4.477 10-10v-48.057c0-5.523-4.477-10-10-10s-10 4.477-10 10v48.057c0 5.523 4.477 10 10 10z"/><path id="XMLID_399_" d="m123.688 428.569c2.63 0 5.2-1.07 7.07-2.93 1.859-1.86 2.93-4.44 2.93-7.07s-1.07-5.211-2.93-7.07c-1.86-1.87-4.44-2.93-7.07-2.93-2.64 0-5.21 1.06-7.07 2.93-1.87 1.86-2.93 4.43-2.93 7.07 0 2.63 1.06 5.21 2.93 7.07 1.861 1.86 4.441 2.93 7.07 2.93z"/><path id="XMLID_409_" d="m397.429 83.829c-1.86-1.86-4.44-2.93-7.07-2.93s-5.21 1.07-7.07 2.93c-1.859 1.86-2.93 4.44-2.93 7.07s1.07 5.21 2.93 7.07 4.441 2.93 7.07 2.93c2.63 0 5.21-1.07 7.07-2.93 1.859-1.86 2.93-4.44 2.93-7.07-.001-2.63-1.071-5.21-2.93-7.07z"/><path id="XMLID_410_" d="m423.858 127.399c2.63 0 5.21-1.07 7.07-2.93 1.859-1.86 2.93-4.44 2.93-7.07s-1.07-5.21-2.93-7.07-4.44-2.93-7.07-2.93-5.21 1.07-7.07 2.93c-1.87 1.86-2.93 4.44-2.93 7.07s1.06 5.21 2.93 7.07c1.86 1.86 4.441 2.93 7.07 2.93z"/><path id="XMLID_413_" d="m382.858 125.899c-2.63 0-5.21 1.07-7.07 2.93-1.87 1.86-2.93 4.44-2.93 7.07s1.06 5.21 2.93 7.07c1.86 1.86 4.441 2.93 7.07 2.93 2.63 0 5.21-1.07 7.07-2.93 1.859-1.86 2.93-4.44 2.93-7.07s-1.07-5.21-2.93-7.07c-1.869-1.86-4.44-2.93-7.07-2.93z"/><path id="XMLID_414_" d="m423.698 426.009c-2.63 0-5.21 1.07-7.07 2.93-1.859 1.86-2.93 4.44-2.93 7.07s1.07 5.21 2.93 7.07 4.44 2.93 7.07 2.93 5.21-1.07 7.07-2.93c1.859-1.86 2.93-4.44 2.93-7.07s-1.07-5.21-2.93-7.07-4.44-2.93-7.07-2.93z"/></g></g></svg>